<?xml version="1.0" standalone="no"?>
<!DOCTYPE svg PUBLIC "-//W3C//DTD SVG 20010904//EN"
 "http://www.w3.org/TR/2001/REC-SVG-20010904/DTD/svg10.dtd">
<svg version="1.0" xmlns="http://www.w3.org/2000/svg"
 width="500.000000pt" height="500.000000pt" viewBox="0 0 500.000000 500.000000"
 preserveAspectRatio="xMidYMid meet">

<g transform="translate(0.000000,500.000000) scale(0.100000,-0.100000)"
fill="#000000" stroke="none">
<path d="M1542 3611 c-63 -144 -66 -186 -24 -276 54 -113 190 -218 402 -308
205 -87 408 -94 561 -18 l52 26 59 169 c32 92 58 176 58 187 0 17 -4 16 -48
-7 -54 -28 -186 -45 -277 -37 -118 11 -399 139 -537 246 -44 33 -48 29 -13
-17 21 -28 23 -35 12 -50 -12 -17 -19 -13 -78 46 -40 39 -73 82 -85 111 -10
26 -22 47 -25 47 -3 0 -29 -54 -57 -119z"/>
<path d="M1140 2598 c-58 -157 -60 -213 -13 -309 69 -139 213 -271 346 -317
131 -45 281 -54 427 -26 88 16 217 59 237 78 11 9 93 189 93 201 0 3 -26 -8
-57 -24 -184 -93 -373 -86 -571 20 -235 125 -391 296 -411 448 l-6 51 -45
-122z"/>
<path d="M2350 2668 c-45 -31 -71 -86 -77 -163 l-6 -63 39 -20 c22 -10 217
-109 434 -220 741 -377 1170 -562 1302 -562 85 0 131 119 107 279 -6 44 -16
85 -23 90 -6 5 -288 117 -626 249 -338 132 -726 283 -861 336 -135 53 -248 96
-251 96 -3 0 -20 -10 -38 -22z"/>
</g>
</svg>
